ply
format ascii 1.0
element vertex 1000
property float x
property float y
property float z
end_header
-0.657551 -0.200044 0.778356
0.189761 0.736561 0.513243
-0.792858 0.552373 -0.358537
-0.238177 0.058734 -1.024853
0.744990 -0.343118 0.568248
0.093847 0.862925 -0.413034
-0.149308 0.132338 -0.960984
0.444500 0.677193 0.549970
0.539360 -0.085350 0.832773
1.023263 0.306051 0.004430
-0.216622 -0.602713 0.667502
-1.122512 -0.156512 0.077229
0.457029 0.766085 0.479958
-0.212324 0.433897 -0.835330
0.980448 -0.087781 -0.419971
-0.968293 -0.076069 -0.541037
1.024672 -0.262936 0.013265
0.435036 0.358759 0.780345
-0.471680 -0.467537 -0.767696
-0.911420 0.108389 0.548067
-0.738368 -0.621396 -0.391168
-0.249156 -0.635617 0.671249
0.516002 -0.684433 0.317542
-0.840303 -0.331857 0.634124
0.419224 0.546924 0.681433
-0.491984 -0.808350 0.179000
0.145840 -0.682622 -0.640966
0.466185 0.770002 -0.118032
-0.552197 -0.197582 -0.770956
-0.610845 0.773734 -0.165539
1.036440 0.103641 0.367186
-0.095879 0.693808 -0.716218
-0.228852 -0.723881 0.566234
0.486492 -0.241433 0.862410
-0.224001 -0.852905 -0.192637
0.163487 -0.087086 0.935257
0.404558 0.669939 0.595872
-0.570503 -0.104597 -0.839431
-0.462088 0.652216 -0.547986
-0.661327 0.277163 0.743440
-0.442490 -0.259922 0.913309
0.562135 -0.516462 0.632615
0.040648 0.111249 0.971483
-0.217516 -0.314737 0.915879
-0.438964 0.875303 -0.109815
0.057745 0.469411 0.862451
1.017920 -0.170107 -0.340107
0.510087 0.161809 -0.857138
0.411369 0.814640 0.151606
1.025661 0.220151 -0.092892
0.092068 -0.421019 -0.861330
0.505991 -0.741277 -0.345859
-0.155612 0.549673 0.731371
0.030519 -0.889384 -0.105709
-0.651028 -0.076476 0.756518
0.883643 0.197925 0.504809
-0.993546 0.106428 0.378977
-0.864167 0.405514 -0.423690
0.691596 0.626882 -0.336060
0.660877 -0.070256 0.846805
-1.039721 0.110336 0.409938
-0.401326 -0.754587 -0.388559
1.004999 -0.250326 -0.276481
0.935483 0.249045 0.393770
0.784676 -0.685821 0.104741
0.153464 -0.132791 -1.015142
0.252504 -0.738775 -0.463804
-0.717226 -0.298821 0.677606
0.751692 0.639379 0.332570
0.181635 -0.789722 0.424406
1.065215 0.150136 0.086209
0.777221 0.663151 0.136436
-0.275359 0.218027 -0.918621
-0.931881 0.551227 -0.206145
0.378739 0.672853 0.586841
-0.451376 0.216725 -0.864656
-0.100286 0.820750 0.027921
-0.863786 -0.557993 -0.220755
1.038347 0.126859 0.100023
-0.556011 0.050620 -0.873896
0.257629 0.727167 -0.560175
0.925771 -0.502846 0.114379
-0.092901 0.052487 0.948676
0.318677 -0.200526 -0.909003
0.841710 0.587931 0.141537
-0.253949 0.594978 -0.739174
-0.529362 -0.809680 0.227807
-0.232267 0.859952 0.008059
-0.262551 0.515162 -0.731816
-0.870687 0.351623 -0.357110
1.037709 0.291237 0.112532
0.184188 -0.190019 0.996898
-0.215309 -0.868205 0.038337
-0.301882 -0.738371 0.465157
-0.239827 -0.900610 -0.042869
-0.400364 -0.826030 0.168393
-0.736307 0.411943 -0.571840
0.988521 0.352162 0.099896
-0.650556 0.637184 0.394014
-0.320421 0.420038 -0.824350
-1.112463 -0.067969 0.056200
0.349831 0.043510 0.922121
-1.001396 0.360823 0.159175
1.041573 0.078493 0.220838
0.919747 0.340221 0.288900
-0.257737 0.075106 -0.992407
-0.446099 0.279885 -0.855173
0.250084 0.039284 0.952304
-0.628168 -0.615324 0.373536
0.071958 0.218102 0.955152
0.099209 -0.917133 -0.161917
0.933897 -0.397197 -0.314205
-0.338686 0.676175 0.636361
-0.740642 0.637616 -0.287986
0.870735 -0.461656 0.430064
-0.590510 -0.132824 0.837207
-0.968033 0.337638 0.365816
0.476229 0.447010 0.682881
0.442203 0.486644 -0.752217
-0.513485 -0.723782 -0.137740
0.297275 0.031440 0.990653
-0.725837 0.758693 0.149423
0.827149 0.213729 -0.602905
-0.112690 -0.933223 0.067231
-0.036651 0.524839 -0.844174
-0.065956 -0.209722 -0.963806
-0.750116 -0.491394 0.456991
0.628505 -0.751516 -0.096687
0.322341 0.181432 -0.939971
-0.357778 -0.698517 0.549451
0.844437 -0.013276 -0.634675
0.387790 0.603444 0.636830
0.313011 0.824133 0.163939
0.538236 0.575355 -0.511729
-0.897456 -0.427755 -0.320361
0.123050 0.587404 -0.762306
0.320701 -0.056281 -0.909746
-0.586790 -0.328593 0.733467
0.614096 -0.005425 -0.771218
0.643434 -0.374145 -0.729633
-0.861435 -0.591767 -0.139307
-0.515717 -0.343220 0.776193
0.867111 0.474619 -0.306252
-1.027157 -0.291916 -0.205289
0.614088 -0.167321 -0.799279
-0.432488 0.745591 -0.437963
-0.669757 -0.126468 0.848443
0.068029 0.168899 -1.010996
-1.077568 -0.001395 -0.299087
0.287422 -0.665353 0.706137
0.693027 -0.646148 0.113772
-0.208758 0.882449 0.153490
0.990093 -0.064815 0.296665
0.720599 0.573972 -0.521054
0.367996 0.190558 -0.942247
-0.679671 0.133909 0.769131
0.452243 -0.296186 -0.834002
-0.851679 0.512649 -0.205926
-1.010957 0.324944 -0.091854
-0.021351 0.689143 -0.566526
-1.071764 -0.118175 0.060417
-0.629681 -0.523097 -0.550847
0.426446 0.592085 0.605157
-0.575722 -0.357854 -0.732074
1.055007 -0.227577 -0.019607
-0.453025 0.130438 -0.907405
-0.267874 -0.322236 -0.928416
0.222138 0.527117 0.769771
0.882997 0.440097 -0.037204
0.540503 -0.432581 0.717319
-0.131693 -0.871985 -0.013146
0.053055 -0.833360 0.373638
0.685249 -0.546066 0.396740
0.683648 -0.612872 -0.317485
-0.946155 -0.409805 -0.039345
0.632705 -0.283606 -0.766775
-0.971409 -0.169211 -0.368874
0.123290 0.124700 -0.958461
0.804706 -0.384529 -0.511255
-0.463845 0.700145 0.481611
0.172290 0.866593 0.029054
0.236158 0.745806 -0.418605
-0.549774 0.659537 0.392104
-0.732388 -0.453398 -0.546014
-0.777461 0.151161 0.696796
0.267240 0.880603 -0.262489
0.288694 -0.832359 0.021447
0.700391 0.380690 0.604857
-0.260613 0.477295 0.842699
0.395659 -0.798503 0.180196
0.216126 -0.486516 -0.829101
-0.644675 0.745984 0.095953
0.732977 -0.644956 0.168485
0.719768 0.673998 -0.220457
0.810369 0.455792 0.547357
0.174083 0.672037 0.676465
-0.225371 -0.827082 0.388428
0.894941 0.516607 -0.300733
-0.196923 -0.636263 0.738707
-0.090976 0.873408 -0.379263
-0.915612 0.259115 0.439223
1.058887 -0.043284 -0.235019
0.137368 -0.670213 -0.625235
0.813804 -0.231290 -0.604512
0.172252 -0.116930 0.938769
-0.171619 0.781698 0.395185
1.014978 0.310392 -0.128967
0.015800 -0.720104 0.511461
0.363109 -0.736943 -0.425088
-0.844956 0.378766 0.402920
-0.289920 0.865009 -0.242983
0.627054 0.757557 -0.173400
1.048962 -0.308181 -0.020927
0.073944 0.425666 0.901514
-0.510112 -0.757202 0.400061
-1.085741 0.019214 0.269717
-0.992769 -0.390330 -0.160607
-0.308241 -0.015952 0.911098
0.337350 -0.635332 0.554161
-0.261394 -0.309855 0.907061
-0.284315 -0.377956 -0.902750
0.544569 -0.632818 -0.518849
-0.823238 -0.126666 -0.656953
0.692931 -0.332916 -0.627477
0.353329 -0.827374 -0.107796
0.821404 -0.594166 -0.304802
-0.254853 -0.087954 0.956552
-1.001604 0.351025 0.024956
-0.424455 0.507343 0.693090
-0.951600 -0.075730 -0.586309
0.992806 0.323090 -0.033274
0.297564 0.288762 0.932015
-0.348608 -0.021138 0.902026
-0.387618 0.615656 -0.541665
0.941680 -0.181435 0.484299
-0.235422 0.865698 -0.026021
-0.215394 0.512215 -0.838874
-0.913674 -0.479752 -0.254494
0.621291 0.674046 -0.440565
0.243854 -0.818848 0.343127
-0.904401 0.209457 -0.510873
-0.536119 -0.241315 -0.825172
0.429041 -0.443212 0.862909
0.587949 0.709452 -0.254982
0.791807 0.645469 -0.207834
0.055055 0.844709 0.112345
-0.401173 0.517907 0.642141
-0.972893 0.415304 0.038413
0.643975 -0.332824 0.683558
0.850019 -0.263237 -0.434784
-0.647688 0.658288 -0.483413
-0.094597 0.854954 0.404980
0.806656 0.548853 -0.396799
-0.811344 0.292168 -0.601987
0.902540 -0.545857 -0.100830
0.099595 -0.870974 0.093993
0.480037 0.813011 0.109243
0.067504 0.888378 0.206421
-0.556175 0.025870 0.911174
0.904741 0.198806 -0.563186
0.728093 0.440632 0.527234
-0.129710 -0.844508 -0.240256
-0.010837 -0.739679 0.653929
-0.373536 -0.767390 0.329961
-0.128423 0.012809 -0.965055
-1.008602 -0.313289 0.234082
0.851452 -0.471411 -0.180204
0.799865 -0.050762 0.617931
-0.909159 -0.068847 0.596555
0.462540 0.813082 -0.204699
0.062157 -0.783573 -0.516065
0.537289 -0.496410 0.777293
-0.313537 0.493234 -0.816424
-0.729236 0.631783 0.371010
0.017814 0.596250 0.703672
0.897199 -0.200481 -0.517381
0.045596 0.232944 -0.934620
-0.955005 0.147393 0.486619
0.445074 -0.656033 0.575722
0.226540 -0.835343 0.264317
1.033222 0.292361 -0.102365
0.609198 0.403864 -0.730530
0.914109 0.475407 0.225859
0.601957 0.246137 -0.816485
0.547666 0.038402 0.862460
-0.437395 -0.528109 -0.674859
0.953394 -0.018142 -0.434957
-0.469426 0.786812 0.037832
-0.489142 -0.296897 0.854486
-0.279197 -0.881727 -0.074207
0.728128 0.456354 0.537011
-0.452816 -0.797241 -0.230144
-0.423951 0.008133 0.871872
-0.424705 -0.479426 -0.757496
0.661091 0.305013 0.736920
-0.727210 -0.221611 0.666708
0.286534 0.682970 0.619794
0.814552 -0.553144 -0.113999
0.143236 0.865854 0.303851
-0.215614 0.349593 0.903196
-0.162096 0.506568 0.845783
0.953169 0.483666 0.111346
-0.419849 -0.672713 0.622000
0.680818 0.677082 0.164639
0.046717 -0.068212 1.022018
-0.612457 -0.423382 -0.671706
-0.372932 -0.081877 0.938585
0.099550 0.874016 -0.207478
-0.426132 -0.783005 0.204293
-0.027214 -0.800570 -0.469505
-0.659087 -0.428912 0.698836
0.358071 0.410305 -0.818653
-0.430371 0.751700 -0.465507
-0.423147 0.371926 0.728474
1.019273 0.150491 -0.462706
0.578940 0.671773 -0.313229
-0.121050 0.328734 0.939487
-0.834893 0.017592 -0.715567
0.037983 -0.127667 0.945266
0.307894 -0.491323 0.804399
-0.710371 0.263167 0.762320
0.448428 0.658594 0.553054
-0.081315 0.185468 -0.972682
0.527757 -0.473915 0.703488
-0.919920 -0.185423 -0.523584
-0.881723 0.523305 -0.232176
-1.020563 -0.353813 -0.138494
0.702854 0.308154 -0.661817
0.142726 0.875734 -0.108659
-1.025868 -0.337834 -0.213692
0.768855 0.650465 -0.281371
0.198196 -0.070014 -0.978448
0.087287 0.292734 -0.933039
0.129137 0.500658 -0.840583
0.166770 0.557546 0.809455
-1.044415 -0.297186 0.034880
0.521579 0.792076 0.102622
1.082526 -0.119218 -0.267450
0.445560 0.550140 0.702796
-0.390861 -0.447778 0.832952
-1.055414 -0.085164 -0.279630
1.017558 0.082848 0.354081
0.298087 -0.341710 0.875914
-0.678681 -0.617023 -0.283550
-0.284751 -0.875370 0.149167
0.997030 -0.099480 0.370380
-0.208340 0.660609 -0.721106
0.915932 0.295403 0.383223
-0.725509 -0.218136 0.712309
-0.997110 -0.217375 0.270202
0.805071 0.404767 0.510314
-0.553643 0.185511 -0.802778
-0.398408 0.115679 -0.889759
1.054968 0.027205 -0.269037
-0.595383 0.689063 0.396471
-0.233824 -0.775994 0.557162
-0.206087 0.924632 0.004498
0.705212 -0.026881 0.718087
0.538375 -0.756214 -0.189407
1.088547 0.154787 -0.341536
0.075013 0.840491 0.303599
-0.088845 -0.632902 0.695122
-0.480505 0.446703 -0.728986
-0.464410 -0.594183 0.647972
-0.342474 0.272751 0.933319
0.142656 -0.844918 -0.333725
-0.732164 0.497908 0.459682
0.139007 -0.398332 -0.917213
-0.361666 -0.272621 -0.900999
-0.758868 -0.262148 0.602344
-0.960871 -0.187545 0.374932
-1.138789 -0.068971 0.014852
0.065066 0.937191 -0.016051
-0.920284 -0.490807 0.048503
-0.525101 -0.722785 -0.419934
-0.180353 0.852712 -0.366236
-0.327109 -0.610105 0.657622
0.400530 0.717310 0.464962
-0.643044 0.153437 -0.811353
0.184388 0.381689 0.914823
-0.539045 0.615102 0.486270
-0.702234 0.120659 0.747791
-0.901331 0.518191 -0.206481
0.499097 -0.841686 0.117979
0.478854 -0.439257 -0.746832
-0.137504 -0.870990 0.070455
-0.680400 0.660370 0.222097
-0.698851 0.590909 -0.375148
-0.257588 0.717683 -0.550068
0.513302 -0.473917 -0.653824
0.173108 -0.909020 0.057081
-0.923100 -0.269697 0.288079
0.190448 -0.396255 -0.824403
-0.166604 -0.438351 0.838919
-1.037634 0.219413 0.294328
-0.895421 0.131537 0.519568
-0.342975 0.861312 -0.094327
0.200708 0.870283 -0.188449
0.356725 -0.800891 0.057530
-1.039841 -0.199608 -0.364441
0.232341 -0.194018 0.948464
-0.182712 -0.403236 -0.880885
-0.031668 -0.343827 0.877379
0.645094 0.464833 -0.618478
-0.878501 -0.244858 -0.584514
0.186218 -0.341037 0.901838
-0.275695 -0.794318 0.326305
0.918885 0.186528 -0.505924
-0.746430 0.657626 -0.062589
-0.010994 -0.463288 0.888412
0.180741 -0.847708 -0.392979
-0.355965 -0.477306 0.828268
-0.503587 -0.203002 0.861628
0.771805 0.690201 0.168767
0.641683 -0.498919 -0.486532
-0.967124 0.264536 0.424173
0.835652 -0.373748 -0.480767
0.708728 -0.611857 0.140487
0.936617 0.333769 0.284613
0.799593 0.605477 -0.182695
-0.736637 -0.670473 0.109915
-0.136878 0.879318 0.079613
0.877522 -0.273650 0.535473
0.331322 0.722728 -0.481778
-0.478044 -0.262602 0.876045
0.337411 0.668212 -0.611573
0.816180 0.507193 -0.259418
-0.860202 -0.035296 0.631015
-0.137685 0.447079 -0.887945
0.717575 0.525446 0.438108
-0.599945 0.472117 -0.587146
0.804986 -0.587813 -0.102046
0.407111 -0.408976 -0.834149
-0.668991 -0.503086 -0.539492
0.895116 -0.469808 0.326959
-0.858371 -0.368710 0.362582
-0.677631 -0.674582 -0.045617
0.632948 0.503318 -0.618754
-0.992473 -0.300116 -0.303154
-0.135548 -0.831581 -0.339553
-0.552108 -0.622237 -0.481475
-0.019066 0.234324 0.993144
-0.646495 0.717164 -0.070496
-0.581359 0.789981 -0.218638
-0.588334 -0.456464 -0.675291
-1.011272 0.326709 0.156343
-0.583402 -0.635773 0.435670
-0.747707 -0.447637 -0.599240
-0.110362 -0.545497 0.737095
0.420781 0.039672 -0.947970
0.041074 0.036970 0.987613
0.382159 0.797029 -0.158351
-0.737184 0.458693 0.551154
0.320471 -0.741130 0.430403
-0.041885 -0.806479 0.526366
1.079365 0.050289 -0.006132
-0.525473 -0.163892 0.820061
-0.379040 -0.588760 -0.616652
0.307071 -0.834030 0.399277
-0.446019 0.296047 0.860522
-0.527352 0.284481 0.801418
0.493781 0.310992 0.849261
-1.022803 -0.050087 -0.359207
0.306176 0.846959 0.185550
-0.242456 0.229038 0.973148
-0.421774 -0.237816 0.910193
-0.063170 0.561157 -0.716689
-0.238198 -0.879534 0.039317
0.241634 -0.580966 -0.767346
0.105336 0.818935 -0.427386
0.203578 -0.068647 -0.984679
0.796248 0.098630 -0.585359
-0.078609 -0.379500 0.939934
-0.493984 -0.783024 -0.025986
-0.405041 0.832013 -0.106119
0.761239 -0.057459 -0.754530
1.075160 -0.241381 -0.197126
0.731864 0.581297 0.307081
0.219151 0.678767 0.646754
0.448427 0.086287 -0.894139
0.233885 -0.193475 0.951083
-0.281197 -0.499614 -0.795157
0.725765 -0.246289 0.746820
0.926765 0.121679 0.495797
0.493896 0.413086 -0.829658
-0.758814 0.441066 0.553750
0.086493 -0.778159 -0.334520
-0.703073 0.521080 -0.504598
0.141267 0.599985 -0.663163
-0.554543 -0.046213 -0.874720
-0.140744 -0.762993 0.516107
-0.949296 0.250354 0.424246
-1.073902 0.385426 -0.055445
0.979641 0.385106 -0.039893
-0.858757 -0.549529 -0.211512
-0.644691 -0.417509 0.800051
0.208737 0.914698 0.022944
-0.099280 -0.450113 -0.872375
0.120153 0.908247 -0.044350
0.642584 -0.689077 -0.251766
-0.090873 0.907819 -0.170161
-0.036661 -0.348511 0.884054
0.450734 -0.352846 -0.830997
-0.433047 0.792334 0.171383
0.830100 0.607346 0.078217
0.246877 0.245094 -0.979476
0.419535 -0.537626 -0.649808
0.097271 0.768596 -0.517275
-0.796099 0.033024 -0.709922
-0.072392 -0.862832 0.206635
-0.042633 -0.549233 0.799857
0.159164 0.430858 -0.893801
0.155529 -0.389335 0.900386
0.696118 0.112885 0.746842
0.635994 -0.583260 0.556405
-1.113087 -0.224359 0.126905
-0.361512 0.843851 -0.161943
0.133070 0.858133 0.381384
0.908036 0.055695 -0.580996
-0.943838 -0.388618 0.074408
0.553192 0.482691 -0.716571
-0.327664 0.176721 -0.972992
-1.095796 0.214642 0.178298
1.028158 0.080902 -0.338429
-1.083140 0.280584 -0.324324
0.356758 -0.533306 0.765086
-0.729759 -0.345117 0.645608
0.652737 0.444488 -0.578314
-1.018349 -0.072523 0.295726
0.418596 0.754697 -0.341602
-0.544431 -0.674155 0.348178
1.040047 -0.247961 -0.373709
-0.395281 -0.462189 0.809940
-0.354634 0.560820 0.621781
0.863127 0.507455 -0.266263
1.095030 -0.101367 0.124625
0.994207 -0.389554 -0.002240
0.612057 0.643356 0.594811
0.825699 0.567159 0.029807
0.202065 0.515041 0.862231
0.956604 -0.330218 -0.322584
-0.037548 0.879428 0.431006
-0.654529 0.043755 -0.687759
0.342469 -0.114743 0.949551
0.709773 0.741097 0.183492
0.496257 0.713391 0.453659
-0.623456 -0.590719 0.424322
-0.664833 0.583069 -0.334990
0.686448 -0.076601 -0.746281
0.221565 -0.183550 -0.920316
1.046693 0.101655 -0.043914
0.729910 -0.502745 0.594808
0.302793 0.140880 -0.948616
0.321256 -0.159286 0.910480
-0.042109 -0.811106 -0.345240
-0.723376 0.487814 -0.438710
0.856851 0.473091 -0.388166
0.977305 0.116892 -0.459467
-0.309180 0.612713 0.640192
0.697925 -0.594914 -0.514952
-0.303468 0.839593 -0.000324
0.257822 -0.471310 -0.795331
-0.140076 0.858527 0.294477
0.863525 -0.329866 0.430986
0.354528 -0.229146 -0.925947
-0.114628 0.409893 -0.835388
-0.436823 -0.001454 -0.889984
1.123024 -0.107123 0.203463
-0.868099 -0.549881 -0.117673
-0.451348 -0.428446 -0.793731
0.324807 -0.664514 0.579734
0.565215 -0.296564 0.823485
-0.837792 -0.092978 -0.633953
-0.059622 -0.422756 -0.845741
-0.906521 0.198520 -0.605029
-1.064195 0.061910 0.279658
-0.106023 -0.711765 0.658595
-0.063539 0.888353 -0.096265
0.495816 -0.756788 -0.195603
-0.281846 0.834765 -0.319664
-0.888085 -0.324046 -0.498267
-0.045147 -0.658563 -0.702674
0.323909 -0.842432 0.281277
0.470835 0.383424 -0.770428
-1.157286 -0.100120 0.018879
-0.704931 0.389668 0.666473
-0.385478 -0.179673 0.944084
0.699244 0.544593 0.346971
-0.810218 -0.340336 0.471041
-0.732348 0.550190 0.349480
-0.738113 0.500270 0.379013
1.083469 0.071223 0.077201
-0.397596 0.558544 -0.713416
0.231343 0.574887 0.751295
0.297646 -0.043199 0.984141
0.473124 0.333216 0.914459
-0.982183 -0.245721 0.236228
-0.779515 0.568135 -0.220821
0.286871 0.898524 -0.041925
-0.691888 0.183062 -0.726569
0.040556 -0.503095 0.778916
0.653293 -0.296434 0.698094
0.441306 0.340487 -0.842718
-0.827209 -0.019931 -0.662281
0.206876 -0.852891 0.259737
-0.422982 -0.599007 -0.655670
0.094777 -0.873924 0.275008
0.107649 0.624382 0.661330
0.811916 -0.541423 -0.234750
0.928335 -0.504555 0.132654
-1.045339 0.312351 0.014413
-0.564457 0.542674 -0.544658
0.492314 0.800306 -0.032223
-0.055160 0.548548 0.798972
-0.067982 -0.424318 -0.834664
-0.281667 0.511822 -0.665998
-0.407012 -0.663669 -0.511674
0.169787 -0.220223 -0.989733
0.027653 0.094056 -0.952484
0.104062 -0.688663 -0.646501
-0.276750 -0.478754 -0.762082
-0.261743 0.527649 -0.754225
-0.878879 0.159372 0.677503
-0.088767 0.893497 -0.203265
0.336955 -0.181234 0.989151
0.441565 0.738551 0.130600
0.763665 0.631713 -0.160522
-0.219697 -0.780967 0.507472
0.275650 -0.754482 0.507509
0.971798 0.269978 0.366471
0.721193 0.241406 0.668214
-0.400368 -0.103166 -0.969526
-0.601474 -0.286714 -0.754247
-0.189570 -0.932261 -0.037418
0.824451 0.597388 -0.067037
0.854167 -0.206687 0.646818
0.245522 -0.044695 -0.939845
-0.977157 0.205806 -0.406600
0.360790 0.815200 0.352314
-0.126722 0.457852 0.823127
-0.028734 0.850289 0.202167
0.435566 -0.788759 -0.200535
-0.785713 -0.241116 -0.621047
0.584048 -0.680405 -0.508191
0.377596 -0.385948 -0.755383
0.690313 -0.140534 0.736872
-0.388588 -0.887473 0.020473
0.071524 0.748030 -0.542902
0.171124 -0.874645 0.343879
0.845716 0.165615 -0.612163
0.189227 0.747535 0.503416
-0.476160 -0.864535 0.023968
0.797131 0.199878 -0.681207
-0.854128 0.558315 -0.091199
-0.839882 -0.441084 0.326038
0.554197 -0.540738 0.608818
-0.229111 -0.687137 0.574252
-0.156451 -0.202985 0.930521
0.737279 0.162322 -0.764344
0.883046 -0.011704 -0.538405
-0.672034 0.536658 -0.440707
0.912838 0.065704 -0.613920
0.487305 -0.555710 -0.647477
-0.150319 -0.300501 -0.868220
0.063792 0.402319 0.907631
-0.595027 -0.148972 -0.789506
0.763255 0.614838 -0.215373
0.956230 -0.304861 -0.399349
-1.057726 -0.055425 0.432566
-0.497502 0.604799 0.618759
0.856496 -0.308889 0.455002
-0.015461 0.746088 0.627489
-0.887471 0.180548 -0.522630
0.897987 0.461436 -0.092984
0.530455 0.329230 0.817152
-0.838828 0.510235 -0.348002
0.463997 -0.769856 -0.090305
0.415067 -0.073175 -0.948492
1.087403 0.088343 -0.067886
1.045499 -0.181319 -0.413519
0.758103 -0.070241 0.659087
0.839869 -0.350240 -0.479425
0.011372 0.821417 -0.487887
-0.266759 -0.619808 0.690435
-0.538079 -0.520916 0.639236
0.683113 0.131537 -0.788095
-0.406504 -0.712540 -0.290705
0.742976 0.267217 -0.686512
-0.972354 0.211789 0.369166
-0.337188 -0.410270 -0.771327
0.814468 0.469350 0.464252
0.859043 -0.524322 0.168361
-0.258420 -0.192019 -0.987307
-0.092496 0.484070 0.856583
-0.487703 0.627753 0.565871
-0.655647 -0.456811 0.623977
-0.096726 -0.597080 -0.784665
-0.170748 0.796474 -0.303173
-0.063910 0.536628 0.857385
-0.404697 -0.744304 0.471274
0.275113 -0.301461 0.964667
-0.488786 0.633704 -0.535301
0.450796 0.794109 -0.174496
-1.008242 0.286436 0.046695
-0.754757 0.663601 -0.186688
-0.577412 0.733827 0.115585
0.264061 0.209630 0.965932
0.077921 -0.339001 -0.934953
-0.313051 0.792152 -0.357004
-0.380071 0.786602 0.336197
-0.928532 0.518100 0.085538
0.938415 0.167914 0.477313
-0.864417 0.485250 0.360743
0.714448 0.607296 -0.017118
-0.093944 -0.867075 0.045959
-1.042178 0.108444 0.232058
0.694061 -0.152898 0.796391
1.062131 -0.153641 -0.072424
0.529066 0.068876 0.894124
-0.271507 0.332963 -0.877948
0.185558 -0.237106 -0.916420
-0.984024 0.161761 -0.388238
-0.262241 -0.136077 -0.951920
1.052660 -0.116818 -0.330967
-0.817777 0.566989 -0.313698
0.977360 0.344090 -0.346269
0.464167 0.472915 -0.794858
0.611714 0.730275 0.202083
0.381536 -0.065572 0.890128
0.847716 -0.105776 -0.570786
0.676910 0.655489 0.269137
-0.901941 0.234245 0.580750
-0.393905 0.745565 -0.360463
0.522241 -0.059755 -0.838575
0.013310 -0.028041 1.011565
0.446099 0.631895 0.556654
0.054343 -0.272162 0.985035
-0.962517 0.066879 -0.448600
0.378205 0.837054 -0.073046
-0.509878 0.463474 -0.718586
0.489297 -0.562886 0.632939
0.240769 -0.379590 0.855329
0.775118 -0.371541 -0.525853
-0.237660 -0.694786 -0.623789
0.880254 0.051443 0.582351
1.069864 -0.027592 -0.218600
0.011135 0.835113 0.239845
-0.832839 -0.237329 -0.595239
-0.600408 -0.720265 0.294739
0.718948 -0.082438 -0.778073
0.190067 0.050422 -1.041306
-1.034157 -0.097833 -0.283418
-1.080196 0.023636 0.179870
0.505351 0.735578 -0.232671
0.245325 0.328079 -0.852963
0.066635 -0.670429 0.704455
0.975569 -0.096986 0.347189
0.857244 0.402979 0.455341
-1.119707 -0.083993 0.050422
-0.167816 -0.667952 0.731368
-0.009565 -0.844259 -0.416430
-0.752722 -0.625358 0.338689
0.253696 0.717088 -0.597288
0.648662 0.508306 0.633880
0.832716 0.556831 0.071464
-0.312096 0.351467 -0.951485
-0.747474 0.065473 -0.707225
0.168418 -0.484484 0.806975
-0.599443 -0.720435 -0.383614
0.314644 -0.440774 -0.909238
-0.360600 -0.852950 -0.223073
-0.282900 -0.684144 0.640782
0.389352 -0.590511 0.640646
0.050782 0.164960 -0.974309
-0.803493 0.570875 0.082058
0.726369 0.316888 -0.629129
-1.031134 0.433060 -0.005318
-0.114260 0.544120 -0.737507
-0.991553 -0.388519 0.240066
-0.666352 -0.207976 0.808770
0.234561 -0.159897 -0.956016
-1.026141 -0.065547 0.372779
-0.814842 0.318060 -0.351923
0.336574 -0.847636 -0.180275
-0.275710 0.415999 -0.819018
0.136799 -0.780881 -0.318954
-0.979599 -0.231142 -0.411342
0.518944 -0.701647 0.343295
0.604734 -0.655566 0.398742
0.939849 -0.152273 -0.487707
-0.835402 0.298314 0.595015
-0.727343 -0.349542 -0.631099
-1.064360 0.182419 0.054200
0.371977 0.679906 0.535820
0.982079 0.011822 -0.435623
0.321827 -0.698190 0.607324
-0.441829 0.420333 -0.820381
0.019820 0.562981 -0.761443
-0.877654 -0.097768 -0.590785
1.071691 -0.156798 -0.077726
-0.053310 -0.604925 -0.691137
0.877728 0.614639 -0.171675
-0.002596 0.696030 -0.597650
-1.028033 0.020456 0.404115
0.698060 0.687103 0.139431
0.452010 0.052825 0.943204
-0.517762 0.504875 -0.571524
0.404300 0.858335 -0.006198
-0.365481 0.864939 -0.010454
-0.597577 -0.529130 -0.455417
0.372892 -0.756660 0.441804
-0.886533 0.220847 -0.573874
-0.824537 0.038284 -0.604891
0.229874 -0.273783 -0.912691
-0.837311 -0.502284 0.309196
0.078614 -0.810775 -0.367813
0.625165 -0.685506 0.275578
0.512674 -0.836523 -0.174487
-0.965456 0.382796 -0.292549
-1.100809 0.031153 -0.114421
0.147135 -0.564262 0.801639
0.211185 -0.458082 0.810062
0.093837 -0.782420 -0.389396
0.557535 0.522204 0.620293
0.392516 0.838590 -0.126251
-0.284376 -0.076442 0.970509
0.127660 -0.732225 -0.545147
-0.558472 0.032121 0.797187
-0.631641 -0.541954 -0.576199
-0.137114 -0.562029 0.735822
-1.001487 0.146940 -0.316509
0.920528 0.017269 -0.590324
-0.808193 0.554508 -0.281567
-0.935812 -0.550090 0.045681
0.268044 -0.812304 -0.343010
-0.359214 0.707242 -0.519889
-0.664788 -0.681065 -0.214581
1.091309 -0.045608 -0.121861
0.872113 0.519654 0.133226
0.763660 -0.506458 0.443041
0.395676 -0.614898 0.617237
0.902332 -0.115855 -0.581419
-0.430846 0.801795 0.316779
-0.573521 0.632631 0.456163
-1.060227 0.197490 0.002364
0.135636 0.762189 0.548217
1.073605 -0.154404 -0.347462
-0.046562 -0.876515 -0.084899
0.705118 -0.310322 -0.679087
0.207095 0.877286 -0.186543
0.373229 -0.324591 -0.955120
-0.673634 -0.527709 -0.475681
-0.589583 -0.554375 -0.679527
-0.103188 -0.009754 1.026563
0.693726 -0.574527 -0.462596
-0.463928 -0.703971 -0.326131
-0.666985 -0.642010 0.280674
-0.094012 -0.778511 0.481483
0.408573 0.815233 -0.319776
0.145172 -0.501982 -0.808812
0.706774 0.240990 -0.744193
-0.020302 0.843827 -0.366125
-0.051499 0.825545 -0.357944
-0.464945 0.826597 0.059181
-0.145680 -0.883716 0.228248
0.312210 0.548791 0.706207
0.257174 -0.422139 -0.856216
0.875749 -0.278902 0.625847
0.516652 -0.143356 0.903890
-0.040975 0.937271 -0.182564
-0.154323 -0.037350 0.992466
0.279287 -0.004599 -0.951779
-0.297293 -0.443285 -0.797017
-0.382611 0.713196 0.467066
0.939524 -0.354610 -0.527406
-0.922777 0.396028 -0.165481
-0.180187 0.430669 -0.817374
0.417631 -0.562082 -0.602679
1.029940 0.272898 0.176378
-0.864340 0.275162 0.536802
-0.226371 -0.229353 0.938437
-0.385078 -0.830503 0.217369
-0.687856 0.506800 -0.542552
-0.332915 -0.425598 -0.783552
0.026098 0.720952 -0.586689
0.588523 -0.778191 -0.221016
0.494605 0.001983 0.868186
-0.720331 -0.697127 -0.138331
0.182577 0.717313 -0.564790
-0.074526 -0.676401 0.689289
1.061083 0.224346 -0.128481
-0.047271 -0.485569 -0.827025
0.917211 0.390468 0.312155
-0.505802 -0.684708 0.473599
0.209054 -0.220373 0.961396
0.791878 0.632709 -0.231877
0.298846 0.420947 -0.780667
1.019299 -0.201316 0.300874
0.540501 0.773686 -0.130729
-1.083052 0.006582 0.185716
-0.445595 0.407459 -0.755447
0.447973 0.709379 -0.392225
-1.103490 -0.086998 -0.113477
-0.154764 -0.351920 0.916705
-0.189372 -0.667269 -0.693973
0.355670 0.038091 -0.866671
-0.729358 0.425903 -0.642256
0.687269 0.222293 0.746127
0.479017 0.226153 0.886874
-0.705712 -0.644135 -0.389335
-0.230578 -0.118097 -0.998279
1.084029 -0.023102 0.112668
-0.986066 -0.210325 -0.351174
0.233874 0.890473 0.024864
-1.042395 0.291057 0.106152
-0.523872 -0.024418 -0.917085
-0.009781 -0.821586 -0.150004
0.843631 -0.573422 0.137629
0.150337 -0.203304 -1.015754
-0.909145 -0.504245 0.227321
0.657289 -0.603630 -0.456371
-0.308204 0.800706 -0.441199
0.913033 -0.337865 -0.321563
-0.487269 -0.159761 -0.880810
-0.188024 -0.897733 -0.113507
-1.057424 -0.316898 -0.175873
-0.296310 -0.860799 0.050671
-0.610023 0.620814 0.443898
0.725452 -0.022467 -0.736859
0.776054 0.059403 0.709042
0.791754 0.177838 -0.620709
-1.074553 -0.241534 0.045740
-0.117425 0.169737 0.999295
0.830415 -0.616868 0.194933
1.008746 0.119259 0.488152
-1.027640 0.113028 -0.197119
-0.823343 -0.477241 0.459253
-0.894501 -0.141524 -0.508708
-0.282627 -0.556394 -0.709801
0.143430 -0.284103 -0.960952
-0.719200 0.419224 0.587700
-0.741700 0.201963 -0.765239
-0.442101 0.511786 -0.704744
0.492112 0.054524 0.926641
1.075482 0.211259 -0.146061
0.957211 0.224504 0.519245
0.464426 0.209059 -0.884782
0.561563 -0.302441 0.798750
-0.346443 0.069408 0.916534
0.338153 -0.540932 0.719191
-0.076305 0.772549 -0.493239
0.194740 0.841008 -0.001511
0.915501 0.437178 0.227818
0.128531 -0.549053 0.751962
0.032738 0.252781 0.958063
-0.217448 0.241484 -0.934043
0.830020 -0.673185 -0.054530
0.521709 0.480744 0.652527
0.222018 0.708727 0.508790
0.349172 -0.778163 -0.246039
0.657411 -0.694607 -0.188935
-0.343779 0.848786 -0.236314
0.056844 -0.358063 -0.929169
0.030162 -0.571386 -0.786596
-0.246231 -0.834169 -0.496247
-1.068687 -0.329129 0.138631
-0.516339 0.810655 -0.267151
0.875015 0.124667 -0.602647
0.726204 0.088785 0.760686
1.009243 -0.289035 0.389974
-0.604375 -0.418401 -0.674404
0.726414 0.494289 0.538977
-0.904778 0.358209 -0.226048
-0.965728 -0.145347 0.332874
0.133577 -0.849613 -0.273634
0.475041 0.790950 0.316480
-0.241993 0.756170 0.413272
-0.102412 -0.513433 -0.842084
0.952701 0.458610 -0.146020
0.257803 -0.575989 0.693615
-0.529707 -0.468397 0.703383
-0.650238 -0.030867 0.852695
0.164360 0.709720 -0.684761
-0.073121 0.845217 0.385649
0.335360 -0.719964 -0.566074
-0.325652 0.416777 -0.764435
-0.096810 0.807339 -0.430300
0.577493 -0.427772 0.679984
0.936879 -0.334478 -0.388133
-0.657411 0.098539 0.826744
-0.183518 -0.021975 -0.952355
-0.509533 0.522430 0.710882
0.625616 0.694726 -0.143010
-0.210798 0.768600 -0.342694
-0.221043 -0.200705 -0.982574
-0.595360 -0.471525 0.727526
-0.156098 0.901105 -0.245612
-0.100596 0.146455 -0.965626
-0.727763 0.617771 0.349873
0.079933 0.302196 -0.893919
